<?xml version="1.0" encoding="UTF-8"?>
<svg width="24px" height="24px" viewBox="0 0 24 24" version="1.1" xmlns="http://www.w3.org/2000/svg" xmlns:xlink="http://www.w3.org/1999/xlink">
    <!-- Generator: Sketch 51.1 (57501) - http://www.bohemiancoding.com/sketch -->
    <title>add_photo_icon@1.5x</title>
    <desc>Created with Sketch.</desc>
    <defs></defs>
    <g id="UI" stroke="none" stroke-width="1" fill="none" fill-rule="evenodd">
        <g id="1024/Account" transform="translate(-532.000000, -168.000000)">
            <g id="ava" transform="translate(449.000000, 104.000000)">
                <g id="add_photo_icon" transform="translate(83.000000, 64.000000)">
                    <rect id="image" stroke="#007FEB" stroke-width="2" fill="#FFFFFF" x="1" y="1" width="22" height="22" rx="11"></rect>
                    <path d="M16.8,7.83384256 L15.642,7.83384256 C15.2412,7.83384256 14.8662,7.62974279 14.6436,7.28937281 L14.1558,6.54385867 C13.9332,6.20409977 13.5582,6 13.1574,6 L10.842,6 C10.4412,6 10.0662,6.20409977 9.8436,6.54385867 L9.3558,7.28937281 C9.1338,7.62974279 8.7588,7.83384256 8.358,7.83384256 L7.2,7.83384256 C6.5376,7.83384256 6,8.3813677 6,9.05599689 L6,15.7778457 C6,16.4524749 6.5376,17 7.2,17 L16.8,17 C17.4624,17 18,16.4524749 18,15.7778457 L18,9.05599689 C18,8.38075662 17.4624,7.83384256 16.8,7.83384256 Z M12,15 C10.3455,15 9,13.6545 9,12 C9,10.3455 10.3455,9 12,9 C13.6545,9 15,10.3455 15,12 C15,13.6545 13.6545,15 12,15 Z" id="Shape" fill="#007FEB" fill-rule="nonzero"></path>
                    <circle id="Oval" fill="#007FEB" cx="12" cy="12" r="2"></circle>
                </g>
            </g>
        </g>
    </g>
</svg>