<?xml version="1.0" encoding="UTF-8"?>
<svg width="72px" height="80px" viewBox="0 0 72 80" version="1.1" xmlns="http://www.w3.org/2000/svg" xmlns:xlink="http://www.w3.org/1999/xlink">
    <!-- Generator: Sketch 51.1 (57501) - http://www.bohemiancoding.com/sketch -->
    <title>Shape</title>
    <desc>Created with Sketch.</desc>
    <defs></defs>
    <g id="UI" stroke="none" stroke-width="1" fill="none" fill-rule="evenodd">
        <g id="768/contribution-amount-placeholder-org" transform="translate(-348.000000, -120.000000)" fill="#E1E3E6" fill-rule="nonzero">
            <path d="M419.790509,196.966547 L411.680072,175.452658 C411.479087,174.918835 411.072891,174.490949 410.547029,174.257913 C410.470098,174.224034 410.388894,174.194377 410.31191,174.173196 C411.355141,170.771129 412.278591,167.136049 412.240122,165.00501 C412.171705,160.912361 407.968995,150.820606 407.490149,149.680937 C407.485869,149.668213 407.477315,149.655518 407.473034,149.638555 C407.391823,149.456381 399.277106,131.302204 396.596419,124.718382 C395.121368,121.087542 391.012707,119.168339 387.241767,120.346123 C385.950637,120.748613 384.85188,121.456158 383.9968,122.367029 C383.141717,121.456158 382.04291,120.748613 380.751725,120.346123 C376.985066,119.168339 372.876455,121.087543 371.39713,124.718382 C368.71644,131.302204 360.606,149.456381 360.52474,149.638555 C360.516181,149.655518 360.511955,149.668213 360.503394,149.680937 C360.024551,150.820606 355.82607,160.912361 355.753421,165.00501 C355.714905,167.136049 356.638409,170.771129 357.681635,174.173196 C357.604656,174.194377 357.527674,174.224034 357.450747,174.257913 C356.92488,174.490949 356.518736,174.918835 356.317753,175.452658 L348.134614,197.140236 C347.890938,197.788466 347.980705,198.517159 348.382621,199.089129 C348.780204,199.656831 349.434354,200 350.135528,200 L372.05128,200 C372.927707,200 373.714421,199.470412 374.039355,198.665458 L379.729896,184.51493 C379.930881,184.015005 379.930881,183.460001 379.729896,182.960076 C381.422996,182.290671 382.893709,181.176422 383.9968,179.7656 C385.099783,181.176422 386.570551,182.290671 388.267927,182.960076 C388.066946,183.460001 388.066946,184.015005 388.267927,184.51493 L393.958472,198.665458 C394.283406,199.470412 395.070066,200 395.942267,200 L417.853736,200 C417.858016,200 417.862296,200 417.862296,200 C419.046595,200 420,199.050989 420,197.88166 C420,197.551209 419.927303,197.241912 419.790509,196.966547 Z M383.9968,148.600563 C383.154504,147.706628 382.094212,147.011804 380.909914,146.583922 C381.636764,143.991049 382.885152,139.563735 384.001027,135.691402 C385.108344,139.563735 386.356782,143.991049 387.087913,146.583922 C385.899334,147.011804 384.843323,147.706628 383.9968,148.600563 Z M370.60191,195.763319 L353.218081,195.763319 L359.562774,178.947922 L374.962805,184.925902 L370.60191,195.763319 Z M375.946169,179.447846 L375.946162,179.447846 C373.716981,179.447846 371.507482,179.034539 369.431708,178.229253 L362.623982,175.588233 C361.260151,171.478647 359.994594,167.004712 360.02883,165.081267 C360.071574,162.607033 362.752264,155.345379 364.44103,151.333228 C364.765966,150.608771 372.696872,132.848577 375.360441,126.302898 C376.010313,124.709927 377.810241,123.866805 379.464825,124.383694 C381.226291,124.934457 382.162633,126.828268 381.593968,128.696634 C380.341303,132.823158 377.570848,142.66499 376.553246,146.295807 C372.991847,147.058428 370.315491,150.206281 370.315491,153.955736 L370.315491,164.335609 C370.315491,165.509177 371.273177,166.45395 372.453195,166.45395 C373.633159,166.45395 374.590899,165.509177 374.590899,164.335609 L374.590899,153.955735 C374.590899,151.985694 376.202683,150.375731 378.186482,150.354553 C378.212157,150.358795 378.237785,150.358795 378.263409,150.354553 C380.251535,150.375731 381.859093,151.985694 381.859093,153.955735 L381.859093,173.588481 C381.859093,176.824519 379.211787,179.447846 375.946169,179.447846 Z M386.134504,173.588535 L386.134504,153.955735 C386.134504,151.975087 387.769847,150.354553 389.768603,150.354553 L389.807014,150.354553 C391.792855,150.354553 393.402698,151.949814 393.402698,153.917671 L393.402698,164.335609 C393.402698,165.509176 394.360387,166.453949 395.540405,166.453949 C396.720366,166.453949 397.678105,165.509176 397.678105,164.335609 L397.678105,153.955735 C397.678105,150.206281 395.001699,147.058427 391.444527,146.295806 C390.422698,142.66499 387.652243,132.823158 386.399524,128.696633 C385.830913,126.828267 386.767255,124.934457 388.528671,124.383693 C390.183302,123.871045 391.983233,124.709926 392.633106,126.302897 C395.296675,132.848576 403.227582,150.60877 403.552513,151.333228 C405.241279,155.345379 407.921972,162.602818 407.964715,165.081266 C407.998896,167.004711 406.733394,171.478646 405.369566,175.588232 L398.567199,178.228312 C396.490725,179.034212 394.280367,179.447845 392.050311,179.447845 L392.047323,179.447845 C388.789515,179.447846 386.134504,176.821125 386.134504,173.588535 Z M397.391582,195.763319 L393.034968,184.925902 L408.435,178.952163 L414.775468,195.763319 L397.391582,195.763319 Z" id="Shape"></path>
        </g>
    </g>
</svg>