<?xml version="1.0" encoding="UTF-8"?>
<svg width="13px" height="12px" viewBox="0 0 13 12" version="1.1" xmlns="http://www.w3.org/2000/svg" xmlns:xlink="http://www.w3.org/1999/xlink">
    <!-- Generator: Sketch 51.1 (57501) - http://www.bohemiancoding.com/sketch -->
    <title>confirm_edit_icon@1x</title>
    <desc>Created with Sketch.</desc>
    <defs></defs>
    <g id="UI" stroke="none" stroke-width="1" fill="none" fill-rule="evenodd" opacity="0.900000036">
        <g id="1024/checkout/edit-amount" transform="translate(-866.000000, -223.000000)" fill="#9B9B9B">
            <g id="envelops" transform="translate(144.000000, 160.000000)">
                <g id="amount" transform="translate(0.000000, 56.000000)">
                    <g id="icons/16/check" transform="translate(720.000000, 5.000000)">
                        <g id="icons/16/pencil" transform="translate(2.000000, 2.000000)">
                            <path d="M4.52493098,12 C4.19432341,12 3.87600012,11.8679655 3.64313275,11.6317352 L0.352011767,8.29269498 C-0.124672016,7.80909888 -0.116126425,7.03333012 0.370972299,6.56007407 C0.857803973,6.08655288 1.63919151,6.09556728 2.11614234,6.57863313 L4.40288925,8.89878089 L10.77977,0.488609795 C11.1896913,-0.0517240119 11.9628003,-0.160957343 12.5081159,0.246546613 C13.0526303,0.653520309 13.1615866,1.42160031 12.7519323,1.96219925 L5.51087862,11.5116316 C5.29456833,11.7969108 4.96369371,11.9742824 4.60451181,11.9973487 C4.57807388,11.9992046 4.55163596,12 4.52493098,12 Z" id="Shape" fill-rule="nonzero"></path>
                        </g>
                    </g>
                </g>
            </g>
        </g>
    </g>
</svg>