<?xml version="1.0" encoding="UTF-8"?>
<svg width="70px" height="13px" viewBox="0 0 70 13" version="1.1" xmlns="http://www.w3.org/2000/svg" xmlns:xlink="http://www.w3.org/1999/xlink">
    <!-- Generator: Sketch 51.1 (57501) - http://www.bohemiancoding.com/sketch -->
    <title>discover_logo@1x</title>
    <desc>Created with Sketch.</desc>
    <defs></defs>
    <g id="UI" stroke="none" stroke-width="1" fill="none" fill-rule="evenodd">
        <g id="1024/Wallet" transform="translate(-344.000000, -744.000000)">
            <g id="Group-2-[32v]" transform="translate(320.000000, 464.000000)">
                <g id="Discover" transform="translate(0.000000, 256.000000)">
                    <g id="discover_logo" transform="translate(24.000000, 24.000000)">
                        <g id="Group" transform="translate(67.915333, 0.807742)" fill="#231F1F">
                            <g id="Shape">
                                <path d="M1.4839,0.84034535 C1.4839,0.644657 1.35731533,0.5358353 1.12354933,0.5358353 L0.815865333,0.5358353 L0.815865333,1.5247778 L1.04223933,1.5247778 L1.04223933,1.14008375 L1.30926867,1.5247778 L1.59385333,1.5247778 L1.274158,1.116219 C1.40905867,1.07899051 1.48390067,0.9778054 1.48390067,0.84034665 L1.4839,0.84034535 Z M1.08474267,0.973986 L1.0422398,0.973986 L1.0422398,0.71911385 L1.0875146,0.71911385 C1.19931593,0.71911385 1.25660193,0.760160635 1.25660193,0.84416345 C1.25660193,0.93007525 1.19654353,0.973986 1.0847426,0.973986 Z"></path>
                                <path d="M1.16882067,0.1654601 C0.705908667,0.1654601 0.336320667,0.54919995 0.336320667,1.0284001 C0.336320667,1.50568795 0.707758667,1.8903846 1.16882067,1.8903846 C1.62249267,1.8903846 1.99300733,1.5018718 1.99300733,1.0284001 C1.99300733,0.55493035 1.62249333,0.1654601 1.16882067,0.1654601 Z M1.16789669,1.7347811 C0.798306687,1.7347811 0.499863353,1.42168 0.499863353,1.0303046 C0.499863353,0.6351098 0.796459353,0.3220061 1.16789669,0.3220061 C1.52917135,0.3220061 1.82484335,0.64083435 1.82484335,1.0303046 C1.82484335,1.41786255 1.52917135,1.7347811 1.16789669,1.7347811 Z"></path>
                            </g>
                        </g>
                        <path d="M67.9072667,4.12043645 C67.9072667,2.02037095 66.5102133,0.81283345 64.0699933,0.81283345 L60.9303267,0.81283345 L60.9303267,12.0176634 L63.0462333,12.0176634 L63.0462333,7.51492495 L63.323426,7.51492495 L66.2487327,12.0176634 L68.8515727,12.0176634 L65.433786,7.29728545 C67.0304193,6.96127445 67.907266,5.83583195 67.907266,4.12045595 L67.9072667,4.12043645 Z M63.6616,5.96945245 L63.046232,5.96945245 L63.046232,2.57497695 L63.6967107,2.57497695 C65.015224,2.57497695 65.7322307,3.14867735 65.7322307,4.23784595 C65.7322307,5.36328845 65.015224,5.96944595 63.661604,5.96944595 L63.6616,5.96945245 Z" id="Shape" fill="#231F1F" fill-rule="nonzero"></path>
                        <polyline id="Shape" fill="#231F1F" fill-rule="nonzero" points="53.5338667 12.0176634 59.5341667 12.0176634 59.5341667 10.1199689 55.6479267 10.1199689 55.6479267 7.09396545 59.3863333 7.09396545 59.3863333 5.19817545 55.6479267 5.19817545 55.6479267 2.71054745 59.5341667 2.71054745 59.5341667 0.81285295 53.5338667 0.81285295 53.5338667 12.0176829"></polyline>
                        <polyline id="Shape" fill="#231F1F" fill-rule="nonzero" points="47.3515533 8.33963845 44.4558133 0.81283345 42.1468 0.81283345 46.7509733 12.3049634 47.8883867 12.3049634 52.5729467 0.81283345 50.28056 0.81283345 47.35156 8.33963845"></polyline>
                        <path d="M31.0147333,6.3608311 C31.0147333,9.7428916 33.4919133,12.2696561 36.7969733,12.2696561 C40.0207267,12.2696561 42.5653533,9.7094816 42.5653533,6.4266956 C42.5653533,3.1658666 40.0373533,0.6037811 36.7969733,0.6037811 C33.6037133,0.6037811 31.0147333,3.1801796 31.0147333,6.3608311 Z" id="Shape" fill="#F48027" fill-rule="nonzero"></path>
                        <path d="M21.8350667,6.4209652 C21.8350667,9.7171152 24.3408867,12.2696522 27.56002,12.2696522 C28.4719867,12.2696522 29.25182,12.0854188 30.2127533,11.6148162 L30.2127533,9.0441442 C29.3645467,9.9185372 28.6170467,10.2688677 27.6570333,10.2688677 C25.5272667,10.2688677 24.0138,8.6728187 24.0138,6.4037922 C24.0138,4.2559972 25.5743933,2.5578072 27.56002,2.5578072 C28.5671533,2.5578072 29.3322067,2.92913725 30.2127533,3.8178452 L30.2127533,1.2471732 C29.2860067,0.76033945 28.5191067,0.5608317 27.6099133,0.5608317 C24.40464,0.5608317 21.8350667,3.1658692 21.8350667,6.4209717" id="Shape" fill="#231F1F" fill-rule="nonzero"></path>
                        <path d="M18.0476333,5.1103325 C16.7771667,4.6254078 16.4048067,4.3046705 16.4048067,3.700424 C16.4048067,2.9959475 17.0682213,2.458521 17.9820333,2.458521 C18.6158807,2.458521 19.13608,2.72771135 19.6904667,3.3634575 L20.79462,1.871454 C19.88358,1.045746 18.7951333,0.6266845 17.6069067,0.6266845 C15.68966,0.6266845 14.2251533,2.0041385 14.2251533,3.835013 C14.2251533,5.3823835 14.9079733,6.1708595 16.8917467,6.9097015 C17.72148,7.21134765 18.1437333,7.41276315 18.3553267,7.54831285 C18.7785073,7.83564015 18.991022,8.23656535 18.991022,8.70621635 C18.991022,9.61593035 18.2906487,10.2860413 17.346342,10.2860413 C16.337362,10.2860413 15.5251887,9.76770665 15.0373287,8.79212685 L13.673542,10.1552613 C14.6474153,11.6319898 15.8180887,12.2877813 17.429502,12.2877813 C19.6248687,12.2877813 21.1688353,10.7738208 21.1688353,8.60789085 C21.1688353,6.82760585 20.4555287,6.02003285 18.047642,5.11032535" id="Shape" fill="#231F1F" fill-rule="nonzero"></path>
                        <polygon id="Shape" fill="#231F1F" fill-rule="nonzero" points="10.7612 0.81283345 12.8752533 0.81283345 12.8752533 12.0176634 10.7612 12.0176634"></polygon>
                        <path d="M3.963498,0.81283345 L0.855244667,0.81283345 L0.855244667,12.0176634 L3.948718,12.0176634 C5.588778,12.0176634 6.77608467,11.6148324 7.81740467,10.7261199 C9.051838,9.66463095 9.78455133,8.06858195 9.78455133,6.42098145 C9.78455133,3.11337845 7.392378,0.81284645 3.96350467,0.81284645 L3.963498,0.81283345 Z M6.436978,9.22838345 C5.768018,9.85172175 4.907798,10.1199559 3.54031133,10.1199559 L2.971142,10.1199559 L2.971142,2.71054095 L3.54031133,2.71054095 C4.907798,2.71054095 5.73475133,2.9625492 6.436978,3.61643295 C7.16876467,4.28941045 7.603958,5.32989795 7.603958,6.40379545 C7.603958,7.48151495 7.16876533,8.55922795 6.436978,9.22838345 Z" id="Shape" fill="#231F1F" fill-rule="nonzero"></path>
                    </g>
                </g>
            </g>
        </g>
    </g>
</svg>