<?xml version="1.0" encoding="UTF-8"?>
<svg width="130px" height="40px" viewBox="0 0 130 40" version="1.1" xmlns="http://www.w3.org/2000/svg" xmlns:xlink="http://www.w3.org/1999/xlink">
    <!-- Generator: Sketch 51.1 (57501) - http://www.bohemiancoding.com/sketch -->
    <title>logo/full</title>
    <desc>Created with Sketch.</desc>
    <defs></defs>
    <g id="UI" stroke="none" stroke-width="1" fill="none" fill-rule="evenodd">
        <g id="1024/Login" transform="translate(-447.000000, -64.000000)">
            <g id="logo/full" transform="translate(447.000000, 64.000000)">
                <g id="logo">
                    <path d="M11.9716688,2.63794471 C6.87085668,4.16221786 2.96993747,6.16650082 3.2592297,7.114332 C3.54779779,8.06252167 7.91759489,7.59541727 13.018407,6.07114412 C18.1192191,4.54687098 22.0201384,2.54258802 21.7312082,1.59475684 C21.441916,0.646567168 17.072843,1.11367157 11.9716688,2.63794471 M24.6494752,1.22014126 C25.1940253,3.00610758 20.1257993,6.1005398 13.3305095,8.13099207 C6.53449563,10.1618028 0.584272291,10.3600444 0.0400842858,8.57371958 C-0.504465788,6.78775325 4.56303609,3.69332104 11.3586879,1.66286876 C18.1543397,-0.367942004 24.1049251,-0.566183549 24.6494752,1.22014126" id="Fill-42" fill="#FFB802"></path>
                    <path d="M12.7287211,24.6775328 C13.7988837,25.713315 15.1610713,26.2310287 16.814569,26.2310287 C18.4673518,26.2310287 19.829182,25.713315 20.9000594,24.6775328 C21.970222,23.6421054 22.5060182,22.3164177 22.5060182,20.7018891 C22.5060182,19.1146832 21.970222,17.8031892 20.9000594,16.7670521 C19.829182,15.7316247 18.4673518,15.2132014 16.814569,15.2132014 C15.1610713,15.2132014 13.7988837,15.7316247 12.7287211,16.7670521 C11.6574863,17.8031892 11.1231198,19.1146832 11.1231198,20.7018891 C11.1231198,22.3164177 11.6574863,23.6421054 12.7287211,24.6775328 Z M22.5060182,10.9348779 L27.6287871,10.9348779 L27.6287871,30.1463493 C27.6287871,33.26718 26.591866,35.6481662 24.5183813,37.2896628 C22.4448967,38.9304497 19.9446337,39.7515528 17.0175925,39.7515528 C14.8222222,39.7515528 12.8913544,39.3342592 11.2242742,38.5003818 C9.55755133,37.6661495 8.2768591,36.4423013 7.3825549,34.8277727 L11.8544333,32.2849788 C12.8845631,34.1681224 14.659589,35.1102265 17.1802258,35.1102265 C18.833366,35.1102265 20.1340747,34.679449 21.0830665,33.8189584 C22.0313435,32.9574034 22.5060182,31.7335552 22.5060182,30.1463493 L22.5060182,27.9669131 C20.9608235,30.0118644 18.7922609,31.0341627 16.0014027,31.0341627 C13.1279769,31.0341627 10.7227918,30.0320904 8.78513271,28.0272361 C6.84711617,26.0230916 5.87846534,23.5814275 5.87846534,20.7018891 C5.87846534,17.8503831 6.85390745,15.4147513 8.80550655,13.3971228 C10.7567482,11.3787846 13.1554994,10.3699703 16.0014027,10.3699703 C18.7922609,10.3699703 20.9608235,11.3929782 22.5060182,13.4375747 L22.5060182,10.9348779 Z" id="Fill-44" fill="#FFFFFF"></path>
                    <path d="M31.1780357,31.1099109 L36.4246733,31.1099109 L36.4246733,11.0782738 L31.1780357,11.0782738 L31.1780357,31.1099109 Z M33.7811517,8.67461821 C32.9129696,8.67461821 32.1602829,8.36112855 31.5238067,7.73309252 C30.8862578,7.10576096 30.5680198,6.36465731 30.5680198,5.50942933 C30.5680198,4.65490583 30.8862578,3.90710971 31.5238067,3.26604096 C32.1602829,2.62497222 32.9129696,2.30443784 33.7811517,2.30443784 C34.6757941,2.30443784 35.4413533,2.62497222 36.0789022,3.26604096 C36.715736,3.90710971 37.0343316,4.65490583 37.0343316,5.50942933 C37.0343316,6.36465731 36.715736,7.10576096 36.0789022,7.73309252 C35.4413533,8.36112855 34.6757941,8.67461821 33.7811517,8.67461821 Z" id="Fill-46" fill="#FFFFFF"></path>
                    <polygon id="Fill-48" fill="#FFFFFF" points="54.1000245 10.9460798 59.9603464 10.9460798 52.118764 31.1099109 46.0516072 31.1099109 38.2100247 10.9460798 44.0703466 10.9460798 49.0728481 25.0575705"></polygon>
                    <path d="M64.2286743,19.1304431 L74.6672165,19.1304431 C74.3663504,17.757859 73.7455441,16.7352536 72.8044378,16.0622721 C71.8629717,15.3896456 70.791586,15.0527999 69.5910007,15.0527999 C68.1719636,15.0527999 66.9983699,15.4102326 66.0705795,16.1229682 C65.142789,16.8364138 64.5288206,17.8384322 64.2286743,19.1304431 Z M64.3107287,23.1676221 C65.0197074,25.6976918 66.943667,26.9627267 70.0826073,26.9627267 C72.1015772,26.9627267 73.6293004,26.2901001 74.6672165,24.9437822 L78.9239679,27.3663026 C76.9039184,30.2463511 73.9301665,31.6860203 70.000193,31.6860203 C66.6165291,31.6860203 63.9015364,30.676903 61.8548552,28.6579585 C59.8081739,26.639724 58.7846534,24.0961662 58.7846534,21.0279953 C58.7846534,17.9868004 59.7941383,15.4503417 61.8134681,13.4179092 C63.8327979,11.3861866 66.4254287,10.3699703 69.5910007,10.3699703 C72.5928239,10.3699703 75.069211,11.3929306 77.020522,13.4381412 C78.9711132,15.4840618 79.9471286,18.0141314 79.9471286,21.0279953 C79.9471286,21.7013318 79.87839,22.4144224 79.7423525,23.1676221 L64.3107287,23.1676221 Z" id="Fill-49" fill="#FFFFFF"></path>
                    <polygon id="Fill-50" fill="#FFFFFF" points="81.7106682 31.1099109 87.001287 31.1099109 87.001287 1.72832838 81.7106682 1.72832838"></polygon>
                    <path d="M89.9626891,31.1099109 L95.2089691,31.1099109 L95.2089691,11.0782738 L89.9626891,11.0782738 L89.9626891,31.1099109 Z M92.5654475,8.67461821 C91.697623,8.67461821 90.9449363,8.36112855 90.3081025,7.73309252 C89.6709112,7.10576096 89.3526731,6.36465731 89.3526731,5.50942933 C89.3526731,4.65490583 89.6709112,3.90710971 90.3081025,3.26604096 C90.9449363,2.62497222 91.697623,2.30443784 92.5654475,2.30443784 C93.4600899,2.30443784 94.2260067,2.62497222 94.863198,3.26604096 C95.5003894,3.90710971 95.818985,4.65490583 95.818985,5.50942933 C95.818985,6.36465731 95.5003894,7.10576096 94.863198,7.73309252 C94.2260067,8.36112855 93.4600899,8.67461821 92.5654475,8.67461821 Z" id="Fill-51" fill="#FFFFFF"></path>
                    <path d="M109.895917,7.33333623 C107.061418,7.11862214 105.644168,8.26022085 105.644168,10.758841 L105.644168,10.9600912 L109.895917,10.9600912 L112.866534,15.9573315 L105.644168,15.9573315 L105.644168,31.1099109 L100.470272,31.1099109 L100.470272,15.9573315 L97.5825246,15.9573315 L97.5825246,10.9600912 L100.470272,10.9600912 L100.470272,10.758841 C100.470272,7.91122187 101.258769,5.74849109 102.836469,4.27029436 C104.414169,2.79351489 106.767318,2.14866397 109.895917,2.33609592 L109.895917,7.33333623 Z" id="Fill-52" fill="#FFFFFF"></path>
                    <path d="M124.885702,10.9460798 L130.501931,10.9460798 L123.083042,31.1291417 C122.024989,34.0062609 120.622006,36.0967785 118.874449,37.4017576 C117.126533,38.7056737 114.951748,39.2906643 112.351165,39.1567294 L112.351165,34.3205472 C113.761305,34.3467672 114.880543,34.0516145 115.708522,33.4336717 C116.535785,32.8153745 117.193802,31.8218471 117.682217,30.4513179 L109.339455,10.9460798 L115.077698,10.9460798 L120.384418,24.4897994 L124.885702,10.9460798 Z" id="Fill-53" fill="#FFFFFF"></path>
                </g>
            </g>
        </g>
    </g>
</svg>