<?xml version="1.0" encoding="UTF-8"?>
<svg width="16px" height="16px" viewBox="0 0 16 16" version="1.1" xmlns="http://www.w3.org/2000/svg" xmlns:xlink="http://www.w3.org/1999/xlink">
    <!-- Generator: Sketch 51.1 (57501) - http://www.bohemiancoding.com/sketch -->
    <title>help_icon_active@1x</title>
    <desc>Created with Sketch.</desc>
    <defs></defs>
    <g id="UI" stroke="none" stroke-width="1" fill="none" fill-rule="evenodd">
        <g id="1024/Receipt/No-ID" transform="translate(-514.000000, -403.000000)" fill="#0075F7" fill-rule="nonzero">
            <g id="Group-3" transform="translate(320.000000, 73.000000)">
                <g id="Group-9" transform="translate(20.000000, 205.000000)">
                    <g id="help_icon_active" transform="translate(174.000000, 125.000000)">
                        <path d="M8,14 C11.3137085,14 14,11.3137085 14,8 C14,4.6862915 11.3137085,2 8,2 C4.6862915,2 2,4.6862915 2,8 C2,11.3137085 4.6862915,14 8,14 Z M8,16 C3.581722,16 0,12.418278 0,8 C0,3.581722 3.581722,0 8,0 C12.418278,0 16,3.581722 16,8 C16,12.418278 12.418278,16 8,16 Z M5,6.48548278 C5.05189189,5.0452397 6.10918919,4 8.03567568,4 C9.81297297,4 11,4.96016205 11,6.30317353 C11,7.23295071 10.507027,7.88318704 9.62486486,8.37542201 C8.77513514,8.84334909 8.53513514,9.15327481 8.53513514,9.75489534 L8.53513514,10.1012829 L7.03027027,10.1012829 L7.02378378,9.68804862 C6.96540541,8.77650236 7.34162162,8.22957461 8.23675676,7.73733964 C9.04108108,7.28156651 9.31351351,6.95948683 9.31351351,6.35786631 C9.31351351,5.7258609 8.76864865,5.27008778 7.95135135,5.27008778 C7.11459459,5.27008778 6.57621622,5.74409183 6.52432432,6.48548278 L5,6.48548278 Z M7.85405405,12.938555 C7.20540541,12.938555 6.7772973,12.5557056 6.7772973,11.972316 C6.7772973,11.3828494 7.20540541,11 7.85405405,11 C8.51567568,11 8.93081081,11.3828494 8.93081081,11.972316 C8.93081081,12.5557056 8.51567568,12.938555 7.85405405,12.938555 Z" id="Mask"></path>
                    </g>
                </g>
            </g>
        </g>
    </g>
</svg>