<?xml version="1.0" encoding="UTF-8"?>
<svg width="48px" height="29px" viewBox="0 0 48 29" version="1.1" xmlns="http://www.w3.org/2000/svg" xmlns:xlink="http://www.w3.org/1999/xlink">
    <!-- Generator: Sketch 51.1 (57501) - http://www.bohemiancoding.com/sketch -->
    <title>mastercard_logo@1x</title>
    <desc>Created with Sketch.</desc>
    <defs></defs>
    <g id="UI" stroke="none" stroke-width="1" fill="none" fill-rule="evenodd">
        <g id="1024/Wallet" transform="translate(-344.000000, -484.000000)">
            <g id="Group-2-[32v]" transform="translate(320.000000, 464.000000)">
                <g id="MasterCard">
                    <g id="mastercard_logo" transform="translate(24.000000, 20.000000)">
                        <path d="M28.5046026,14.4057198 C28.5046026,22.3619906 22.1350324,28.8109865 14.2774623,28.8109865 C6.41920636,28.8109865 0.0492187826,22.3620208 0.0492187826,14.4057198 C0.0492187826,6.44966042 6.41923617,7.10542736e-15 14.2774623,7.10542736e-15 C22.1350324,7.10542736e-15 28.5046026,6.44966042 28.5046026,14.4057198" id="Shape" fill="#E71B25"></path>
                        <path d="M33.5188174,6.77626358e-21 C29.8419578,6.77626358e-21 26.492482,1.41213688 23.9670559,3.72873542 C23.4535155,4.20088865 22.9737034,4.71083552 22.5314385,5.25378802 L25.405598,5.25378802 C25.7981724,5.7377799 26.1601699,6.2465849 26.490237,6.77952333 L21.4461227,6.77952333 C21.1446082,7.26920646 20.870075,7.77801448 20.6265719,8.30525865 L27.3097819,8.30525865 C27.5382219,8.79904104 27.7392298,9.30761948 27.9123607,9.83031125 L20.023993,9.83031125 C19.8596333,10.3272806 19.7213545,10.8360856 19.6105073,11.3551373 L28.3251607,11.3551373 C28.5335896,12.3386028 28.6446619,13.3589467 28.6446619,14.4056956 C28.6446619,16.0049641 28.3874421,17.5443717 27.9123488,18.9819863 L20.0239811,18.9819863 C20.1968849,19.5044515 20.3981188,20.013486 20.6261098,20.5079511 L27.309767,20.5079511 C27.065588,21.0338329 26.7924045,21.5430941 26.4890922,22.0334599 L21.4461108,22.0334599 C21.7752805,22.5648033 22.1379518,23.0742941 22.5314266,23.5576032 L25.4046887,23.5576032 C24.9630976,24.1010119 24.4830589,24.6109588 23.9677207,25.083112 C26.4929262,27.3997166 29.8419667,28.8109411 33.5187965,28.8109411 C41.3763667,28.8109411 47.7463841,22.3619755 47.7463841,14.4056745 C47.7463841,6.4503099 41.3763667,-4.53125e-05 33.5187965,-4.53125e-05" id="Shape" fill="#F99F1B"></path>
                        <path d="M45.6921242,22.3198591 C45.6921242,22.0630656 45.8980797,21.8547625 46.1519284,21.8547625 C46.4062253,21.8547625 46.6112825,22.0630659 46.6112825,22.3198591 C46.6112825,22.5768803 46.4062262,22.7854118 46.1519284,22.7854118 C45.8980812,22.7854118 45.6921242,22.5768809 45.6921242,22.3198591 Z M46.1519284,22.6738615 C46.3441687,22.6738615 46.5011091,22.5151867 46.5011091,22.3198591 C46.5011091,22.123849 46.344169,21.9665394 46.1519284,21.9665394 C45.9587887,21.9665394 45.8022976,22.1238481 45.8022976,22.3198591 C45.8022976,22.5151861 45.9587878,22.6738615 46.1519284,22.6738615 Z M46.0896471,22.5240653 L45.9952132,22.5240653 L45.9952132,22.1158812 L46.1663183,22.1158812 C46.2016186,22.1158812 46.2380431,22.1158812 46.269521,22.1354595 C46.3016735,22.1586801 46.3205602,22.1976089 46.3205602,22.2381312 C46.3205602,22.2843448 46.2942535,22.3275993 46.2504092,22.3439903 L46.325057,22.5240653 L46.2205052,22.5240646 L46.1584487,22.3626581 L46.0896471,22.3626581 L46.0896471,22.5240646 L46.0896471,22.5240653 Z M46.0896471,22.2923136 L46.1418106,22.2923136 C46.1611468,22.2923136 46.1818324,22.2936795 46.19937,22.2843457 C46.2146594,22.2741013 46.2229786,22.255889 46.2229786,22.2372213 C46.2229786,22.2217408 46.2126359,22.2035284 46.1998199,22.1955607 C46.1831815,22.1857716 46.1570999,22.1878205 46.139562,22.1878205 L46.0896471,22.1878205 L46.0896471,22.2923135 Z" id="Shape" fill="#F1AB3D"></path>
                        <path d="M45.6921242,17.7672548 C45.6921242,17.5093231 45.8985296,17.3017021 46.1510281,17.3017021 C46.4053249,17.3017021 46.6103821,17.5093224 46.6103821,17.7672548 C46.6103821,18.0233653 46.4053258,18.2323514 46.1510281,18.2323514 C45.8985302,18.2323514 45.6921242,18.023365 45.6921242,17.7672548 Z M46.1510281,18.120801 C46.3446174,18.120801 46.5011091,17.9621263 46.5011091,17.7672548 C46.5011091,17.5721555 46.3446186,17.413482 46.1510281,17.413482 C45.9583382,17.413482 45.8022976,17.5721567 45.8022976,17.7672548 C45.8022976,17.9621263 45.9583382,18.120801 46.1510281,18.120801 Z M46.0891966,17.9705496 L45.9952123,17.9705496 L45.9952123,17.5623656 L46.1658678,17.5623656 C46.2016177,17.5623656 46.2375923,17.5637315 46.2688457,17.5833097 C46.3021222,17.6053921 46.3201097,17.6445487 46.3201097,17.685071 C46.3201097,17.7312846 46.293803,17.774539 46.2508582,17.7909301 L46.3250561,17.9705496 L46.2205043,17.9705488 L46.1584478,17.8091424 L46.0891966,17.8091424 L46.0891966,17.9705488 L46.0891966,17.9705496 Z M46.0891966,17.7392535 L46.1413598,17.7392535 C46.1602468,17.7392535 46.1822811,17.7410747 46.1989196,17.7312856 C46.2142089,17.7214965 46.2220782,17.7019182 46.2220782,17.6841612 C46.2220782,17.6686808 46.2130846,17.6513791 46.199819,17.6418176 C46.1836302,17.6327114 46.157099,17.6352156 46.1395611,17.6352156 L46.0891966,17.6352156 L46.0891966,17.7392534 Z" id="Shape" fill="#FFFFFF"></path>
                        <path d="M44.2367702,11.1550312 L43.893436,13.2660651 C43.4718559,12.7035316 43.0181247,12.2960332 42.4191443,12.2960332 C41.6396154,12.2960332 40.9304616,12.8943062 40.4659379,13.7753293 C39.8188412,13.6394199 39.1506097,13.4083524 39.1506097,13.4083524 L39.1501601,13.4140437 C39.2014241,12.9216298 39.2234585,12.6220356 39.2182873,12.5195931 L37.7993059,12.5195931 C37.606616,14.3592625 37.2626063,16.2219264 36.9943698,18.0622785 L36.9233197,18.4620375 L38.4691105,18.4620375 C38.6775393,17.0906517 38.8369515,15.9505589 38.9547691,15.0476802 C39.4829241,14.564371 39.7473385,14.1436656 40.2799895,14.170986 C40.0439049,14.749681 39.9058518,15.4157959 39.9058518,16.0992142 C39.9058518,17.5842014 40.6476069,18.5647065 41.7709201,18.5647065 C42.3370727,18.5647065 42.7712431,18.3668755 43.1950712,17.9088353 L43.1222224,18.4615783 L44.5836972,18.4615783 L45.7600728,11.1550283 L44.2367645,11.1550283 L44.2367702,11.1550312 Z M42.3049252,17.0892771 C41.7792447,17.0892771 41.5132561,16.6945267 41.5132561,15.9177707 C41.5132561,14.7496779 42.0108313,13.9217007 42.7112169,13.9217007 C43.2420701,13.9217007 43.5296437,14.3305675 43.5296437,15.0854677 C43.5296437,16.2635776 43.0237476,17.0892771 42.3049282,17.0892771 L42.3049252,17.0892771 Z" id="Shape" fill="#0B2D5A"></path>
                        <path d="M35.3573963,15.9492146 C35.1961842,15.9300917 35.1246842,15.9248556 35.0136119,15.9248556 C34.1383006,15.9248556 33.6951354,16.2285461 33.6951354,16.8288702 C33.6951354,17.1983514 33.9114338,17.4348856 34.2486976,17.4348856 C34.8773575,17.4348856 35.3315389,16.8284171 35.3573963,15.9492156 L35.3573963,15.9492146 Z M36.481607,18.5961473 L35.2020283,18.5961473 L35.2310331,17.9807975 C34.8404831,18.4668375 34.3197457,18.6992725 33.6126162,18.6992725 C32.7748523,18.6992725 32.2017293,18.0368007 32.2017293,17.0756441 C32.2017293,15.6282208 33.1991305,14.7854476 34.9131032,14.7854476 C35.0882555,14.7854476 35.3121979,14.801611 35.5417631,14.8316612 C35.5896546,14.6349684 35.6024706,14.5514194 35.6024706,14.4448767 C35.6024706,14.0519449 35.3342337,13.9055643 34.6122634,13.9055643 C33.856794,13.8964582 33.2342042,14.0870044 32.9772104,14.1719194 C32.993624,14.0735728 33.1914854,12.8358199 33.1914854,12.8358199 C33.9613458,12.6072555 34.4685895,12.5209735 35.0399147,12.5209735 C36.3662591,12.5209735 37.0691192,13.1244847 37.067545,14.2636651 C37.070468,14.5689475 37.020553,14.9466272 36.9427576,15.4410893 C36.8087514,16.3009393 36.5211774,18.1476653 36.4816058,18.5961382 L36.481607,18.5961473 Z" id="Shape" fill="#0C2D5A"></path>
                        <path d="M31.2830012,12.737229 C31.712002,12.737229 32.1124442,12.8501453 32.6633083,13.1315262 L32.9162561,11.545918 C32.6891654,11.455767 31.8929975,10.9273812 31.2184722,10.9273812 C30.1850949,10.9273812 29.3102337,11.4473422 28.6964151,12.3035491 C27.7997423,12.0030459 27.4307773,12.6104265 26.9792941,13.2159857 L26.5779515,13.3106898 C26.6083051,13.1114927 26.6359608,12.9134351 26.627192,12.7130994 L25.2077605,12.7130994 C25.0146207,14.5527688 24.6712875,16.4154328 24.4023742,18.2557849 L24.3322232,18.6555438 L25.8775638,18.6555438 C26.1352332,16.9586118 26.2762083,15.8724742 26.3623251,15.1366959 L26.9442162,14.8102405 C27.03168,14.4821901 27.3030654,14.3720082 27.8487569,14.3854388 C27.7777067,14.772906 27.7390336,15.1810901 27.7390336,15.6033875 C27.7390336,17.5477801 28.7762331,18.758225 30.438491,18.758225 C30.8665914,18.758225 31.234659,18.7013116 31.8041835,18.5442303 L32.0746688,16.8791712 C31.5627026,17.1339159 31.1433704,17.2538904 30.7629391,17.2538904 C29.8649188,17.2538904 29.3216989,16.5825404 29.3216989,15.4736378 C29.3216989,13.8643523 30.1293332,12.7372401 31.2829998,12.7372401" id="Shape" fill="#0C2D5A"></path>
                        <path d="M23.8009043,18.4588625 C23.2734231,18.622318 22.7637048,18.6997202 22.2252075,18.6992649 C20.5060621,18.6981267 19.6105163,17.7886498 19.6105163,16.0484626 C19.6105163,14.0166531 20.7500184,12.5209751 22.2967096,12.5209751 C23.5636979,12.5209751 24.3717794,13.3582866 24.3717794,14.6725304 C24.3717794,15.1080318 24.3155687,15.5330631 24.1829116,16.1333842 L21.1252818,16.1333842 C21.0214047,16.9955089 21.5666463,17.3552026 22.4594969,17.3552026 C23.0087869,17.3552026 23.5047879,17.2400097 24.0565523,16.9804833 L23.8009064,18.458867 L23.8009043,18.4588625 Z M22.9379598,14.935 C22.9462789,14.8107009 23.1005208,13.8743612 22.2231861,13.8743612 C21.7343791,13.8743612 21.3847483,14.2524941 21.2421973,14.935 L22.9379598,14.935 Z" id="Shape" fill="#0C2D5A"></path>
                        <g id="path-1-link" transform="translate(16.677406, 11.838011)" fill="#0C2D5A">
                            <path d="M2.34105839,6.75107917 C1.91858087,6.88585032 1.58896099,6.94435722 1.23168596,6.94435722 C0.442038261,6.94435722 0.0107925466,6.48472534 0.0107925466,5.63944482 C1.19254658e-07,5.37582153 0.124787776,4.68625711 0.222818981,4.05520201 C0.311856596,3.49949857 0.892624696,5.13541667e-06 0.892624696,5.13541667e-06 L2.42784954,5.13541667e-06 L2.24842524,0.89923774 L3.03649878,0.89923774 L2.82672089,2.32708295 L2.03594922,2.32708295 C1.85764919,3.45806784 1.60312636,4.86496659 1.60020462,5.05164503 C1.60020462,5.35897857 1.76209103,5.49192847 2.12948363,5.49192847 C2.30531031,5.49192847 2.44156412,5.47439912 2.54589108,5.43592554 L2.34105958,6.75108158" id="path-1"></path>
                        </g>
                        <path d="M13.0001322,14.5325102 C13.0001322,15.2849061 13.3603289,15.8021363 14.1767314,16.1921077 C14.8020194,16.4898788 14.8986991,16.5779799 14.8986991,16.847979 C14.8986991,17.2183724 14.6230423,17.3854698 14.0116949,17.3854698 C13.5507667,17.3854698 13.1222191,17.3130758 12.6275657,17.1516694 C12.6275657,17.1516694 12.4252076,18.4609076 12.4155393,18.5228286 C12.7665177,18.6006864 13.0797251,18.6717143 14.0227134,18.6992604 C15.6528203,18.6992604 16.4055944,18.0711627 16.4055944,16.7132075 C16.4055944,15.8963863 16.0903656,15.4174029 15.3166831,15.0577093 C14.6691363,14.7560679 14.5947154,14.689364 14.5947154,14.4116285 C14.5947154,14.0904082 14.8512605,13.9251324 15.3506349,13.9251324 C15.653497,13.9251324 16.0678831,13.9592805 16.4604575,14.0152834 L16.6803536,12.6372941 C16.2803586,12.5733234 15.6741841,12.520963 15.3207312,12.520963 C13.5928177,12.520963 12.9949613,13.4347651 13.000134,14.5325117" id="Shape" fill="#0C2D5A"></path>
                        <path d="M11.0755081,15.9492146 C10.9136217,15.9300917 10.8421216,15.9248556 10.7308234,15.9248556 C9.85528547,15.9248556 9.41212323,16.2285461 9.41212323,16.8288702 C9.41212323,17.1983514 9.62842166,17.4348856 9.96590907,17.4348856 C10.5952427,17.4348856 11.0487503,16.8284171 11.0755051,15.9492156 L11.0755081,15.9492146 Z M12.1988214,18.5961473 L10.9192427,18.5961473 L10.9484722,17.9807975 C10.5581458,18.4668375 10.0371848,18.6992725 9.32960813,18.6992725 C8.49252092,18.6992725 7.91872117,18.0368007 7.91872117,17.0756441 C7.91872117,15.6282208 8.9167962,14.7854476 10.6303217,14.7854476 C10.8056988,14.7854476 11.0300901,14.801611 11.2598819,14.8316612 C11.3077734,14.6349684 11.3203646,14.5514194 11.3203646,14.4448767 C11.3203646,14.0519449 11.0512283,13.9055643 10.3299338,13.9055643 C9.57378771,13.8964582 8.95097429,14.0870044 8.69465429,14.1719194 C8.71084293,14.0735728 8.90892927,12.8358199 8.90892927,12.8358199 C9.67856604,12.6072555 10.18626,12.5209735 10.7575822,12.5209735 C12.0839265,12.5209735 12.7863365,13.1244847 12.7849859,14.2636651 C12.7876841,14.5689475 12.7377691,14.9466272 12.6601984,15.4410893 C12.5259675,16.3009393 12.2381681,18.1476653 12.198823,18.5961382 L12.1988214,18.5961473 Z" id="Shape" fill="#0C2D5A"></path>
                        <g id="path-2-link" transform="translate(0.948587, 11.382681)" fill="#0C2D5A">
                            <polyline id="path-2" points="6.19372919 7.30630833 4.64928596 7.30630833 5.53426584 1.68964271 3.55857689 7.30630833 2.50586534 7.30630833 2.37568159 1.72217708 1.44573376 7.30630833 -2.38509317e-06 7.30630833 1.20762693 0 3.42884631 0 3.49067806 4.52303333 4.98947657 0 7.3883198 0 6.19373098 7.30630833"></polyline>
                        </g>
                        <path d="M45.198559,18.2336896 L43.737758,18.2336896 L43.8101572,17.680717 C43.3863291,18.1389834 42.9519351,18.3368148 42.3860062,18.3368148 C41.2633667,18.3368148 40.5209378,17.3574485 40.5209378,15.8708693 C40.5209378,13.8943773 41.6723565,12.2284089 43.0340002,12.2284089 C43.6332042,12.2284089 44.0867118,12.4760963 44.5091922,13.0388561 L44.8518526,10.9273661 L46.3751609,10.9273661 L45.1985617,18.2336745 L45.198559,18.2336896 Z M42.920005,16.8607088 C43.6397247,16.8607088 44.1447205,16.0354624 44.1447205,14.8584944 C44.1447205,14.1033676 43.8571468,13.693362 43.3260701,13.693362 C42.6256875,13.693362 42.1281093,14.5213392 42.1281093,15.6898851 C42.1281093,16.4677769 42.3947723,16.8607088 42.920005,16.8607088 Z" id="Shape" fill="#FFFFFF"></path>
                        <path d="M38.2486807,12.1294569 C38.0553165,13.9686732 37.7119811,15.8315788 37.4432944,17.6716892 L37.3729187,18.0714482 L38.9178121,18.0714482 C39.4702503,14.4376273 39.6033564,13.7284867 40.4703497,13.8170576 C40.608178,13.0733133 40.8649485,12.4219944 41.0565132,12.0937174 C40.4096431,11.957125 40.0483194,12.3272904 39.5748009,13.0307407 C39.6125745,12.7263676 39.6807017,12.4310992 39.6678857,12.1294599 L38.2486807,12.1294599" id="Shape" fill="#FFFFFF"></path>
                        <path d="M35.8069863,15.4939146 C35.6457743,15.4747917 35.5742743,15.4695556 35.463202,15.4695556 C34.5878907,15.4695556 34.1447255,15.773246 34.1447255,16.3735702 C34.1447255,16.7430513 34.3610239,16.9795856 34.6982877,16.9795856 C35.3269476,16.9795856 35.7811289,16.3731171 35.8069863,15.4939156 L35.8069863,15.4939146 Z M36.931197,18.1408443 L35.6516184,18.1408443 L35.6806232,17.5254945 C35.2900731,18.0115345 34.7693358,18.2439695 34.0622063,18.2439695 C33.2244423,18.2439695 32.6513194,17.5814977 32.6513194,16.620341 C32.6513194,15.1729178 33.6487206,14.3301446 35.3626933,14.3301446 C35.5378456,14.3301446 35.7617879,14.346308 35.9913531,14.3763582 C36.0392446,14.1796654 36.0520606,14.0961164 36.0520606,13.9895737 C36.0520606,13.5966418 35.7838238,13.4502613 35.0618534,13.4502613 C34.3063841,13.4411552 33.6837943,13.6317013 33.4268005,13.7166164 C33.4432141,13.6182698 33.6410755,12.3805169 33.6410755,12.3805169 C34.4109359,12.1519525 34.9181796,12.0656705 35.4895048,12.0656705 C36.8158491,12.0656705 37.5187093,12.6691817 37.5171351,13.8083621 C37.520058,14.1136445 37.4701431,14.4913242 37.3923476,14.9857893 C37.2583415,15.8456393 36.9707675,17.6923653 36.9311958,18.1408382 L36.931197,18.1408443 Z" id="Shape" fill="#FFFFFF"></path>
                        <path d="M33.3310807,11.0792295 L33.0781333,12.6648377 C32.5265954,12.3841404 32.1270505,12.2705404 31.6982764,12.2705404 C30.54506,12.2705404 29.7363017,13.399021 29.7363017,15.0085331 C29.7363017,16.1174357 30.2799718,16.7874203 31.1779921,16.7874203 C31.5581999,16.7874203 31.9784324,16.6683575 32.4897218,16.412701 L32.218337,18.0777602 C31.6497099,18.2348414 31.2816423,18.2919826 30.853542,18.2919826 C29.1903837,18.2919826 28.1545348,17.0813202 28.1545348,15.1373868 C28.1545348,12.5252873 29.5865566,10.6997222 31.6332826,10.6997222 C32.3078108,10.6997222 33.1044259,10.9890703 33.3310664,11.0792204" id="Shape" fill="#FFFFFF"></path>
                        <path d="M25.658555,12.1294569 C25.4642913,13.9686732 25.1205078,15.8315788 24.8522713,17.6716892 L24.7818956,18.0714482 L26.3272362,18.0714482 C26.8801246,14.4376273 27.0127805,13.7284867 27.8784233,13.8170576 C28.017151,13.0733133 28.2745962,12.4219944 28.4654871,12.0937174 C27.8190642,11.957125 27.4572933,12.3272904 26.9846752,13.0307407 C27.0219989,12.7263676 27.090576,12.4310992 27.0768605,12.1294599 L25.6585559,12.1294599" id="Shape" fill="#FFFFFF"></path>
                        <path d="M24.2505839,18.0035625 C23.7231026,18.167018 23.2133843,18.2444202 22.674887,18.2439649 C20.9557416,18.2428267 20.0601958,17.3333498 20.0601958,15.5931626 C20.0601958,13.5613531 21.1996979,12.0656751 22.7463891,12.0656751 C24.0133774,12.0656751 24.8214589,12.9029866 24.8214589,14.2172304 C24.8214589,14.6527318 24.7652482,15.0777631 24.6325911,15.6780842 L21.5749613,15.6780842 C21.4710842,16.5402089 22.0163258,16.8999026 22.9091764,16.8999026 C23.4584664,16.8999026 23.9544674,16.7847097 24.5062319,16.5251833 L24.2505859,18.003567 L24.2505839,18.0035625 Z M23.3876393,14.4797 C23.3959584,14.3554009 23.5502003,13.4190613 22.6728656,13.4190613 C22.1840586,13.4190613 21.8344278,13.7971941 21.6918768,14.4797 L23.3876393,14.4797 Z" id="Shape" fill="#FFFFFF"></path>
                        <g id="path-1-link" transform="translate(17.127116, 11.382681)" fill="#FFFFFF">
                            <path d="M2.34105839,6.75107917 C1.91858087,6.88585032 1.58896099,6.94435722 1.23168596,6.94435722 C0.442038261,6.94435722 0.0107925466,6.48472534 0.0107925466,5.63944482 C1.19254658e-07,5.37582153 0.124787776,4.68625711 0.222818981,4.05520201 C0.311856596,3.49949857 0.892624696,5.13541667e-06 0.892624696,5.13541667e-06 L2.42784954,5.13541667e-06 L2.24842524,0.89923774 L3.03649878,0.89923774 L2.82672089,2.32708295 L2.03594922,2.32708295 C1.85764919,3.45806784 1.60312636,4.86496659 1.60020462,5.05164503 C1.60020462,5.35897857 1.76209103,5.49192847 2.12948363,5.49192847 C2.30531031,5.49192847 2.44156412,5.47439912 2.54589108,5.43592554 L2.34105958,6.75108158" id="path-1"></path>
                        </g>
                        <path d="M13.4498117,14.0772102 C13.4498117,14.8296061 13.8100084,15.3468363 14.6264109,15.7368077 C15.2516989,16.0345788 15.3483786,16.1226799 15.3483786,16.392679 C15.3483786,16.7630724 15.0727218,16.9301698 14.4613744,16.9301698 C14.0004462,16.9301698 13.5718986,16.8577758 13.0772452,16.6963694 C13.0772452,16.6963694 12.8748871,18.0056076 12.8652188,18.0675286 C13.2161972,18.1453861 13.5294046,18.2164143 14.4723929,18.2439604 C16.1024998,18.2439604 16.8552739,17.6158627 16.8552739,16.2579075 C16.8552739,15.4410863 16.5400451,14.9621029 15.7663626,14.6024093 C15.1188158,14.3007679 15.0443949,14.234064 15.0443949,13.9563285 C15.0443949,13.6351082 15.30094,13.4698324 15.8003144,13.4698324 C16.1031765,13.4698324 16.5175626,13.5039805 16.910137,13.5599834 L17.1300328,12.1819941 C16.7300378,12.1180234 16.1238634,12.065663 15.7704104,12.065663 C14.0424969,12.065663 13.4446405,12.9794651 13.4498132,14.0772117" id="Shape" fill="#FFFFFF"></path>
                        <path d="M11.5251876,15.4939146 C11.3633012,15.4747917 11.2918011,15.4695556 11.1805029,15.4695556 C10.304965,15.4695556 9.86180273,15.773246 9.86180273,16.3735702 C9.86180273,16.7430513 10.0781012,16.9795856 10.4155886,16.9795856 C11.0449222,16.9795856 11.4984298,16.3731171 11.5251846,15.4939156 L11.5251876,15.4939146 Z M12.6485009,18.1408443 L11.3689222,18.1408443 L11.3981518,17.5254945 C11.0078253,18.0115345 10.4868643,18.2439695 9.77928766,18.2439695 C8.94220046,18.2439695 8.36840071,17.5814977 8.36840071,16.620341 C8.36840071,15.1729178 9.36647574,14.3301446 11.0800012,14.3301446 C11.2553783,14.3301446 11.4797696,14.346308 11.7095615,14.3763582 C11.7574529,14.1796654 11.7700441,14.0961164 11.7700441,13.9895737 C11.7700441,13.5966418 11.5009078,13.4502613 10.7796133,13.4502613 C10.0234672,13.4411552 9.40065382,13.6317013 9.14433382,13.7166164 C9.16052246,13.6182698 9.35860851,12.3805169 9.35860851,12.3805169 C10.1282453,12.1519525 10.6359392,12.0656705 11.2072644,12.0656705 C12.5336088,12.0656705 13.2360187,12.6691817 13.2346681,13.8083621 C13.2373662,14.1136445 13.1874513,14.4913242 13.1098807,14.9857893 C12.9756497,15.8456393 12.6878503,17.6923653 12.6485053,18.1408382 L12.6485009,18.1408443 Z" id="Shape" fill="#FFFFFF"></path>
                        <g id="path-2-link" transform="translate(1.398273, 10.927381)" fill="#FFFFFF">
                            <polyline id="path-2" points="6.19372919 7.30630833 4.64928596 7.30630833 5.53426584 1.68964271 3.55857689 7.30630833 2.50586534 7.30630833 2.37568159 1.72217708 1.44573376 7.30630833 -2.38509317e-06 7.30630833 1.20762693 0 3.42884631 0 3.49067806 4.52303333 4.98947657 0 7.3883198 0 6.19373098 7.30630833"></polyline>
                        </g>
                    </g>
                </g>
            </g>
        </g>
    </g>
</svg>