<?xml version="1.0" encoding="UTF-8"?>
<svg width="60px" height="80px" viewBox="0 0 60 80" version="1.1" xmlns="http://www.w3.org/2000/svg" xmlns:xlink="http://www.w3.org/1999/xlink">
    <!-- Generator: Sketch 51.1 (57501) - http://www.bohemiancoding.com/sketch -->
    <title>Shape</title>
    <desc>Created with Sketch.</desc>
    <defs></defs>
    <g id="UI" stroke="none" stroke-width="1" fill="none" fill-rule="evenodd">
        <g id="768/contribution-amount-placeholder-church" transform="translate(-355.000000, -120.000000)" fill="#E1E3E6" fill-rule="nonzero">
            <path d="M355.02505,189.494164 C355.179753,191.270042 356.039149,192.90962 357.410823,194.045802 L362.348496,198.289232 C363.654119,199.397256 365.310958,200.003702 367.022354,199.999983 C367.243845,199.999983 367.465303,199.990197 367.688428,199.968988 C369.624826,199.792778 371.408462,198.842077 372.635874,197.331938 L385.001619,181.962796 L397.371433,197.344997 C398.583419,198.849249 400.355275,199.79385 402.278155,199.960839 C402.504515,199.982048 402.73251,199.991834 402.958871,199.991834 C404.674955,199.994255 406.336485,199.388203 407.649005,198.281082 L412.593182,194.063738 C413.974322,192.899617 414.833336,191.230812 414.978955,189.428901 C415.120616,187.645201 414.542835,185.879009 413.37472,184.524999 L397.227952,165.593709 L408.743286,152.402476 C413.703739,144.124364 402.67868,126.004213 401.405165,123.96568 C401.367615,123.918347 401.327452,123.873154 401.284864,123.830312 C401.23531,123.765166 401.180866,123.703901 401.122006,123.647049 C401.022414,123.555842 400.912002,123.477242 400.793254,123.41302 C400.748062,123.387536 400.717512,123.346221 400.669085,123.324745 L400.575365,123.288974 L400.566394,123.285634 C390.640595,118.905754 379.333669,118.904748 369.407094,123.282862 L369.381446,123.292648 L369.297399,123.324945 C369.254241,123.344117 369.227359,123.381424 369.18687,123.403634 C369.060359,123.470695 368.943192,123.554105 368.838374,123.651725 C368.782983,123.705928 368.731618,123.764109 368.684688,123.825803 C368.640257,123.870511 368.598516,123.917821 368.559684,123.967483 C367.289404,126.005916 356.290494,144.126101 361.381153,152.590114 L372.287278,166.152314 L356.622614,184.520122 C355.444939,185.896162 354.869238,187.688617 355.02505,189.494164 Z M377.503274,142.46752 L378.128825,142.258773 C382.579876,140.784504 387.386641,140.784504 391.837691,142.258773 L392.449602,142.463044 L384.560671,150.741958 L377.503274,142.46752 Z M406.059545,150.442298 L395.04059,163.028834 L386.738194,153.295009 L395.405795,144.19457 C398.481676,140.221545 400.512098,135.538665 401.310812,130.575491 C404.650988,137.009153 408.4714,146.378257 406.059579,150.442298 L406.059545,150.442298 Z M398.29275,125.986144 C398.244329,130.788201 396.931222,135.492411 394.486079,139.623559 L392.892984,139.091707 C387.757413,137.38586 382.209137,137.38586 377.073566,139.091707 L375.494613,139.618683 C373.033908,135.49533 371.714948,130.789771 371.6735,125.986378 C380.205906,122.504251 389.760283,122.504167 398.29275,125.986144 Z M368.660775,130.590187 C369.467164,135.551529 371.506079,140.23026 374.590071,144.19624 L374.591706,144.197877 L383.204743,154.29619 L383.219618,154.322074 L393.751233,166.670706 L393.770377,166.683766 L410.837796,186.694023 C411.429351,187.374856 411.723286,188.264964 411.653687,189.164745 C411.576914,190.081926 411.136429,190.93008 410.430667,191.519671 L405.48649,195.737015 C404.68323,196.417874 403.637953,196.742213 402.590997,196.63546 C401.565863,196.550088 400.619711,196.050134 399.970726,195.250887 L375.965144,165.416592 C375.865322,165.215771 375.726094,165.037166 375.55578,164.891453 L375.531767,164.878093 L364.110552,150.683676 C361.568425,146.441883 365.338442,137.036875 368.660775,130.590187 Z M359.164741,186.682634 L374.41644,168.799953 L382.86175,179.301898 L370.038215,195.237961 C369.3757,196.040914 368.421164,196.546619 367.385545,196.643321 C366.349926,196.740024 365.318483,196.419764 364.519149,195.753314 L359.563565,191.495223 C358.867272,190.925323 358.428917,190.099094 358.347049,189.202286 C358.27122,188.286582 358.565836,187.378748 359.164741,186.682634 Z" id="Shape"></path>
        </g>
    </g>
</svg>