<?xml version="1.0" encoding="UTF-8"?>
<svg width="10px" height="17px" viewBox="0 0 10 17" version="1.1" xmlns="http://www.w3.org/2000/svg" xmlns:xlink="http://www.w3.org/1999/xlink">
    <!-- Generator: Sketch 51.1 (57501) - http://www.bohemiancoding.com/sketch -->
    <title>phone_icon_active@1.5x</title>
    <desc>Created with Sketch.</desc>
    <defs></defs>
    <g id="UI" stroke="none" stroke-width="1" fill="none" fill-rule="evenodd">
        <g id="1024/Account" transform="translate(-276.000000, -368.000000)" fill="#0075F7" fill-rule="nonzero">
            <g id="phone_icon_active" transform="translate(276.000000, 368.000000)">
                <path d="M7.02784929,3.35026985 C6.88917901,2.56176913 6.8275675,2.4392407 6.67566381,2.39879451 L5.39654387,2.05796249 L5.11123218,4.39133526 L6.69207912,4.81251541 L6.59048682,5.67299315 C6.472379,6.67335596 6.29884709,7.63079056 6.05622992,8.53113982 C5.78526647,9.53633441 5.40630236,10.5817591 4.94896488,11.6420176 L4.60729046,12.4341311 L3.77363049,12.2123287 L3.05757621,12.0218157 L2.12986385,14.1840489 L3.40306387,14.5230658 C3.62313341,14.5817362 3.85014933,14.4302474 4.21645812,13.8633799 C4.29106194,13.7380454 4.42891206,13.4917865 4.60887559,13.1447584 C4.91175858,12.5607016 5.21516027,11.9153711 5.49800788,11.2294733 C5.83075438,10.4225721 6.11219736,9.6136283 6.32598771,8.82013623 C6.38980062,8.58328176 6.44948139,8.33769966 6.50509953,8.08421247 C6.73134111,7.0530858 6.88171032,5.93880062 6.96944543,4.82309789 C7.00022921,4.43162915 7.02091899,4.06851604 7.03339957,3.74362865 C7.03837189,3.61419213 7.04136035,3.51082026 7.04295234,3.43649686 C7.03914869,3.41477934 7.03529327,3.39276831 7.02784929,3.35026985 Z M1.97227669,14.5513397 C1.97939594,14.5363658 1.98567418,14.5216871 1.99116429,14.5073181 L1.97227669,14.5513397 Z M8.99761996,3.00385462 C9.01353442,3.09470933 9.01353442,3.09470933 9.02921481,3.18425108 L9.0442827,3.36563485 C9.0435655,3.45257957 9.04011019,3.60734257 9.03192548,3.82040221 C9.01845488,4.17106133 8.9962537,4.56070005 8.96329024,4.97988713 C8.86889036,6.18034388 8.70670128,7.38221818 8.45862919,8.51284036 C8.39643,8.79632157 8.32933903,9.07239613 8.25712553,9.34043106 C8.0196604,10.2217931 7.71055658,11.1102417 7.34696605,11.9919388 C7.04061672,12.7348276 6.71273597,13.4322247 6.38433652,14.0654855 C6.18553059,14.4488479 6.02878223,14.7288671 5.91616667,14.9168061 C5.11443041,16.160096 4.16243286,16.7953688 2.8881555,16.4556467 L1.36723044,16.0506678 C0.363593959,15.7830985 -0.316151634,14.7067459 0.150065308,13.7279066 L1.26671628,11.1262952 C1.67188561,10.2935597 2.47168709,9.79524387 3.38818696,10.0402011 L3.44071866,10.0541776 C3.71626462,9.35290808 3.94812534,8.66733948 4.12513705,8.01067821 C4.27164421,7.46699195 4.39099932,6.89288784 4.48616679,6.29456718 L4.40809969,6.27376798 C3.48944279,6.02823492 3.04602819,5.19623305 3.11797282,4.22427513 L3.45433464,1.46351136 L3.48139511,1.32441816 C3.73784813,0.372121542 4.71756257,-0.193516854 5.6696134,0.060941829 L7.1903474,0.466153623 C8.37360349,0.781209798 8.7321255,1.49421201 8.99761996,3.00385462 Z" id="Shape"></path>
            </g>
        </g>
    </g>
</svg>