<?xml version="1.0" encoding="UTF-8"?>
<svg width="24px" height="24px" viewBox="0 0 24 24" version="1.1" xmlns="http://www.w3.org/2000/svg" xmlns:xlink="http://www.w3.org/1999/xlink">
    <!-- Generator: Sketch 51.1 (57501) - http://www.bohemiancoding.com/sketch -->
    <title>twitter@1x</title>
    <desc>Created with Sketch.</desc>
    <defs></defs>
    <g id="UI" stroke="none" stroke-width="1" fill="none" fill-rule="evenodd">
        <g id="1024/Share/Edit-memo" transform="translate(-272.000000, -492.000000)" fill-rule="nonzero">
            <g id="Group" transform="translate(272.000000, 328.000000)">
                <g id="twitter" transform="translate(0.000000, 164.000000)">
                    <path d="M0,12 C0,5.3726 5.3726,0 12,0 C18.6274,0 24,5.3726 24,12 C24,18.6274 18.6274,24 12,24 C5.3726,24 0,18.6274 0,12 Z" id="Shape" fill="#55ACEE"></path>
                    <path d="M11.6406,9.753732 L11.6657812,10.16896 L11.2460932,10.118116 C9.71842924,9.9232136 8.38382524,9.26224 7.25066924,8.152144 L6.69668124,7.601332 L6.55398764,8.008084 C6.25181244,8.914804 6.44486884,9.872368 7.07439964,10.516396 C7.41014964,10.8723048 7.33460604,10.923148 6.75543724,10.7112984 C6.55398724,10.6435064 6.37771844,10.592662 6.36093084,10.618084 C6.30217444,10.677402 6.50362444,11.44854 6.66310604,11.753604 C6.88134364,12.177304 7.32621404,12.592532 7.81305004,12.83828 L8.22434204,13.0331824 L7.73750604,13.0416564 C7.26745404,13.0416564 7.25067004,13.0501304 7.30103004,13.2280848 C7.46890524,13.7788968 8.13201004,14.3636048 8.87066204,14.6178248 L9.39107404,14.7957792 L8.93781004,15.066948 C8.26631004,15.4567528 7.47729804,15.677076 6.68828604,15.694024 C6.31056724,15.702498 5.99999804,15.736394 5.99999804,15.761816 C5.99999804,15.8465564 7.02403404,16.3211 7.61999404,16.507528 C9.40786204,17.05834 11.531482,16.8210668 13.126314,15.880452 C14.25947,15.211004 15.392626,13.880584 15.921434,12.592532 C16.2068216,11.906136 16.49221,10.65198 16.49221,10.050324 C16.49221,9.6605192 16.5173913,9.609676 16.987442,9.143604 C17.2644356,8.8724352 17.524642,8.575844 17.575006,8.491104 C17.6589436,8.3300976 17.6505496,8.3300976 17.2224684,8.47415596 C16.5090004,8.72837676 16.4082764,8.69448036 16.7608124,8.31314956 C17.0210188,8.04198076 17.3315884,7.55048956 17.3315884,7.40642956 C17.3315884,7.38100752 17.205682,7.4233776 17.0629884,7.49964396 C16.9119008,7.58438436 16.5761524,7.71149436 16.3243364,7.78776076 L15.8710724,7.93181916 L15.4597804,7.65217636 C15.2331492,7.49964396 14.9141884,7.33016356 14.7463124,7.27931956 C14.3182324,7.16068316 13.6635204,7.17763116 13.2774044,7.31321564 C12.2281844,7.69454644 11.5650804,8.67753164 11.6406244,9.75373564 L11.6406,9.753732 Z" id="Shape" fill="#FFFFFF"></path>
                </g>
            </g>
        </g>
    </g>
</svg>